<?xml version="1.0" encoding="UTF-8"?>
<svg id="Layer_2" data-name="Layer 2" xmlns="http://www.w3.org/2000/svg" viewBox="0 0 305.49 156.23">
  <defs>
    <style>
      .cls-1 {
        fill: #1d1d1b;
      }
    </style>
  </defs>
  <g id="Layer_1-2" data-name="Layer 1">
    <g>
      <path class="cls-1" d="M23.65,19.53c.22,6.51-4.56,11.72-12.15,11.72-6.73,0-11.5-5.21-11.5-11.72S4.99,7.59,11.93,7.59s11.72,5.21,11.72,11.93ZM2.39,154.06V49.04h19.1v105.02H2.39Z"/>
      <path class="cls-1" d="M53.16,0h19.1v154.06h-19.1V0Z"/>
      <path class="cls-1" d="M125.62,19.53c.22,6.51-4.56,11.72-12.15,11.72-6.73,0-11.5-5.21-11.5-11.72s4.99-11.93,11.93-11.93,11.72,5.21,11.72,11.93ZM104.36,154.06V49.04h19.1v105.02h-19.1Z"/>
      <path class="cls-1" d="M229.99,150.15c-4.99,2.6-16.06,6.08-30.16,6.08-31.68,0-52.29-21.48-52.29-53.6s22.13-55.76,56.42-55.76c11.28,0,21.26,2.82,26.47,5.42l-4.34,14.75c-4.56-2.6-11.72-4.99-22.13-4.99-24.08,0-37.1,17.79-37.1,39.71,0,24.3,15.62,39.27,36.45,39.27,10.85,0,18.01-2.82,23.43-5.21l3.26,14.32Z"/>
      <path class="cls-1" d="M278.15,18.88v30.16h27.34v14.54h-27.34v56.63c0,13.02,3.69,20.4,14.32,20.4,4.99,0,8.68-.65,11.07-1.3l.87,14.32c-3.69,1.52-9.55,2.6-16.93,2.6-8.9,0-16.06-2.82-20.61-8.03-5.42-5.64-7.38-14.97-7.38-27.34v-57.28h-16.27v-14.54h16.27v-25.17l18.66-4.99Z"/>
    </g>
  </g>
</svg>