<?xml version="1.0" encoding="UTF-8"?>
<svg id="Layer_2" data-name="Layer 2" xmlns="http://www.w3.org/2000/svg" viewBox="0 0 138.14 148.05">
  <defs>
    <style>
      .cls-1 {
        fill: #fff;
      }

      .cls-2 {
        fill: #76b82a;
      }

      .cls-3 {
        fill: #878787;
      }
    </style>
  </defs>
  <g id="Layer_1-2" data-name="Layer 1">
    <g>
      <rect class="cls-2" width="138.14" height="119.38"/>
      <g>
        <path class="cls-1" d="M48.82,75.22v-4.93h4.28v4.93h-4.28ZM48.82,105.19v-25.28h4.28v25.28h-4.28Z"/>
        <path class="cls-1" d="M59.54,105.19v-34.9h4.28v34.9h-4.28Z"/>
        <path class="cls-1" d="M70.36,105.19v-34.9h4.28v34.9h-4.28Z"/>
        <path class="cls-1" d="M97.86,105.19v-3.71c-1.97,2.86-4.64,4.29-8.02,4.29-1.49,0-2.88-.29-4.18-.86-1.29-.57-2.25-1.29-2.88-2.15-.63-.86-1.07-1.92-1.32-3.18-.18-.84-.26-2.17-.26-4v-15.66h4.28v14.02c0,2.24.09,3.75.26,4.52.27,1.13.84,2.01,1.71,2.66.87.64,1.95.96,3.24.96s2.49-.33,3.62-.99c1.13-.66,1.92-1.56,2.39-2.69.47-1.14.7-2.78.7-4.94v-13.55h4.28v25.28h-3.83Z"/>
        <path class="cls-1" d="M106.69,97.65l4.24-.67c.24,1.7.9,3,1.99,3.9,1.09.91,2.61,1.36,4.56,1.36s3.43-.4,4.38-1.2c.95-.8,1.43-1.74,1.43-2.82,0-.97-.42-1.73-1.26-2.28-.59-.38-2.05-.87-4.38-1.45-3.14-.79-5.32-1.48-6.53-2.06-1.21-.58-2.14-1.38-2.76-2.4-.63-1.02-.94-2.15-.94-3.39,0-1.13.26-2.17.77-3.13.51-.96,1.22-1.76,2.11-2.39.67-.49,1.58-.91,2.73-1.25,1.15-.34,2.38-.51,3.7-.51,1.98,0,3.72.29,5.22.86,1.5.57,2.61,1.35,3.32,2.32.71.98,1.21,2.28,1.48,3.92l-4.19.57c-.19-1.3-.74-2.32-1.65-3.05-.91-.73-2.2-1.1-3.87-1.1-1.97,0-3.37.33-4.21.98-.84.65-1.26,1.41-1.26,2.29,0,.55.17,1.06.52,1.5.35.46.9.84,1.64,1.14.43.16,1.69.52,3.78,1.09,3.03.81,5.15,1.47,6.35,1.99,1.2.52,2.14,1.27,2.82,2.25.68.98,1.02,2.21,1.02,3.67s-.42,2.77-1.25,4.03c-.83,1.26-2.04,2.24-3.61,2.93-1.57.69-3.35,1.04-5.33,1.04-3.28,0-5.79-.68-7.51-2.05-1.72-1.36-2.82-3.39-3.3-6.07Z"/>
      </g>
      <g>
        <path class="cls-3" d="M73.02,134.19v-1.29h1.12v1.29h-1.12ZM73.02,142.04v-6.62h1.12v6.62h-1.12Z"/>
        <path class="cls-3" d="M75.83,142.04v-9.14h1.12v9.14h-1.12Z"/>
        <path class="cls-3" d="M78.66,142.04v-9.14h1.12v9.14h-1.12Z"/>
        <path class="cls-3" d="M85.86,142.04v-.97c-.51.75-1.21,1.12-2.1,1.12-.39,0-.76-.08-1.09-.23-.34-.15-.59-.34-.75-.56-.17-.23-.28-.5-.35-.83-.05-.22-.07-.57-.07-1.05v-4.1h1.12v3.67c0,.59.02.98.07,1.19.07.3.22.53.45.69.23.17.51.25.85.25s.65-.09.95-.26c.3-.17.5-.41.63-.7.12-.3.19-.73.19-1.29v-3.55h1.12v6.62h-1.01Z"/>
        <path class="cls-3" d="M88.63,142.04v-6.62h1v.93c.21-.32.48-.59.83-.78.34-.2.74-.3,1.18-.3.49,0,.89.1,1.2.31.32.2.54.49.66.85.52-.77,1.21-1.16,2.05-1.16.66,0,1.16.18,1.51.54.35.36.53.92.53,1.68v4.55h-1.12v-4.17c0-.45-.04-.77-.11-.97-.07-.2-.21-.36-.4-.48-.19-.12-.41-.18-.67-.18-.47,0-.85.15-1.16.46-.31.31-.46.8-.46,1.49v3.85h-1.12v-4.3c0-.5-.09-.87-.27-1.12s-.48-.37-.9-.37c-.32,0-.61.08-.88.25-.27.17-.46.41-.58.73-.12.32-.18.78-.18,1.38v3.44h-1.12Z"/>
        <path class="cls-3" d="M99.27,134.19v-1.29h1.12v1.29h-1.12ZM99.27,142.04v-6.62h1.12v6.62h-1.12Z"/>
        <path class="cls-3" d="M102.1,142.04v-6.62h1.01v.94c.49-.73,1.19-1.09,2.11-1.09.4,0,.77.07,1.1.22.34.14.59.33.75.56.17.23.28.51.35.83.04.21.06.57.06,1.09v4.07h-1.12v-4.03c0-.46-.04-.8-.13-1.03s-.24-.41-.47-.54c-.22-.13-.48-.2-.78-.2-.48,0-.89.15-1.24.45-.35.3-.52.88-.52,1.73v3.62h-1.12Z"/>
        <path class="cls-3" d="M113.52,141.22c-.41.35-.82.6-1.2.75s-.8.22-1.24.22c-.73,0-1.29-.18-1.68-.53-.39-.36-.59-.81-.59-1.36,0-.32.07-.62.22-.89.15-.27.34-.48.58-.65.24-.16.51-.29.81-.37.22-.06.55-.11,1-.17.91-.11,1.57-.24,2-.39,0-.15,0-.25,0-.29,0-.46-.11-.78-.32-.97-.29-.25-.71-.38-1.28-.38-.53,0-.92.09-1.17.28-.25.19-.44.51-.56.98l-1.1-.15c.1-.47.26-.85.49-1.14.23-.29.56-.51.99-.67.43-.16.93-.23,1.5-.23s1.03.07,1.38.2c.35.13.61.3.78.5.17.2.28.46.35.76.04.19.06.54.06,1.03v1.5c0,1.04.02,1.7.07,1.98.05.28.14.54.28.8h-1.17c-.12-.23-.19-.51-.22-.82ZM113.43,138.71c-.41.17-1.02.31-1.83.42-.46.07-.79.14-.98.23-.19.08-.34.2-.44.36-.1.16-.16.34-.16.53,0,.3.11.55.34.75s.56.3,1,.3.81-.09,1.15-.28c.34-.19.58-.45.74-.78.12-.25.18-.63.18-1.12v-.41Z"/>
        <path class="cls-3" d="M118.75,141.03l.16.99c-.32.07-.6.1-.85.1-.41,0-.72-.06-.95-.19-.22-.13-.38-.3-.47-.51-.09-.21-.14-.65-.14-1.33v-3.81h-.82v-.87h.82v-1.64l1.12-.67v2.31h1.13v.87h-1.13v3.87c0,.32.02.53.06.62.04.09.1.16.19.22s.22.08.38.08c.12,0,.29-.02.49-.04Z"/>
        <path class="cls-3" d="M119.86,134.19v-1.29h1.12v1.29h-1.12ZM119.86,142.04v-6.62h1.12v6.62h-1.12Z"/>
        <path class="cls-3" d="M122.27,138.73c0-1.23.34-2.13,1.02-2.72.57-.49,1.27-.74,2.08-.74.91,0,1.65.3,2.23.89.58.6.87,1.42.87,2.47,0,.85-.13,1.52-.38,2.01-.26.49-.63.87-1.12,1.14-.49.27-1.02.41-1.6.41-.93,0-1.68-.3-2.25-.89-.57-.59-.86-1.45-.86-2.57ZM123.42,138.73c0,.85.18,1.48.55,1.9.37.42.84.63,1.4.63s1.02-.21,1.39-.64c.37-.42.55-1.07.55-1.94,0-.82-.19-1.44-.56-1.86-.37-.42-.84-.63-1.39-.63s-1.03.21-1.4.63c-.37.42-.55,1.05-.55,1.9Z"/>
        <path class="cls-3" d="M129.79,142.04v-6.62h1.01v.94c.49-.73,1.19-1.09,2.11-1.09.4,0,.77.07,1.1.22.34.14.59.33.75.56.17.23.28.51.35.83.04.21.06.57.06,1.09v4.07h-1.12v-4.03c0-.46-.04-.8-.13-1.03s-.24-.41-.47-.54c-.22-.13-.48-.2-.78-.2-.48,0-.89.15-1.24.45-.35.3-.52.88-.52,1.73v3.62h-1.12Z"/>
      </g>
      <rect class="cls-3" x="68.28" y="122.24" width="1.58" height="25.82"/>
    </g>
  </g>
</svg>